<svg xmlns="http://www.w3.org/2000/svg" viewBox="0 0 79.7 90"><path fill="#f9dc3e" d="M23.3 21s1.4-2.7-2.6-8c-4-5.4-2.2-11.3 4.4-13 0 .3-3 5.6 0 9.4 3.1 3.7 4 8.4-1.8 11.6zm11.3 0s1.1-2.2-2-6.3c-3.2-4.1-1.7-8.7 3.4-10 0 .2-2.4 4.3 0 7.2 2.4 3 3.1 6.6-1.4 9zm-30 4.1c-2.5 0-4.6 2-4.6 4.6v49.9c0 5 .4 5.5 1.7 6.3.7.4 1.6.9 1.6 2 0 1.2 2.8 2.1 6.2 2.1h36.7c3.4 0 6.2-1 6.2-2a2 2 0 0 1 1.6-2.1c1.5-.4 1.6-1.8 1.6-6.2V79a14.8 14.8 0 0 0 11.9-.1C74 76.4 78 69 79 58.5c.8-9.6-1.4-21.2-8.2-25.4a15.2 15.2 0 0 0-15-.5v-2.9c0-2.5-2.2-4.6-4.7-4.6H4.6zM63 38.6a7 7 0 0 1 3.6 1c2.8 1.8 5.4 9.2 4.6 18.3-.6 7.2-3.1 12.5-6.6 14a7.1 7.1 0 0 1-9-2.3v-28c2-1.4 4.6-3 7.4-3zM6.2 42.4h10.1V46h-4.6v22.4h4.6v3.7h-10V42.4zm29.8 0h3.6c2.3 0 4 .5 5.1 1.4 1.1 1 1.7 2.5 1.7 4.6v3.3c0 1.6.3 2.8.8 3.4.6.6 1.7 1 3.2 1h1v3.6h-1c-1.5 0-2.6.3-3.2 1-.5.6-.8 1.7-.8 3.3v3.1c0 2.1-.6 3.7-1.7 4.6-1 1-2.8 1.4-5.1 1.4H36v-3.6h1.2c1.5 0 2.5-.3 3-.7.4-.5.6-1.5.6-3V63a7 7 0 0 1 .8-3.7c.5-.7 1.3-1.3 2.5-1.6-1.2-.2-2-.7-2.5-1.5s-.8-2-.8-3.7v-2.7c0-1.6-.2-2.6-.7-3-.4-.5-1.4-.8-3-.8h-1v-3.6zm-13.7 7h5.9v6.4h-5.9v-6.3zm0 12h5.9v6.3h-5.9v-6.3z"/></svg>
